<svg width="250" height="166" viewBox="0 0 250 166" version="1.1" xmlns="http://www.w3.org/2000/svg" xmlns:xlink="http://www.w3.org/1999/xlink"><title>Demo WebSite frontend</title><desc>Created with Sketch.</desc><defs><linearGradient x1="59.117%" y1="73.317%" x2="40.883%" y2="26.682%" id="linearGradient-1"><stop stop-color="gray" stop-opacity=".25" offset="0%"/><stop stop-color="gray" stop-opacity=".12" offset="53.514%"/><stop stop-color="gray" stop-opacity=".1" offset="100%"/></linearGradient><linearGradient x1="49.998%" y1="50.394%" x2="50.002%" y2="49.606%" id="linearGradient-2"><stop stop-color="gray" stop-opacity=".25" offset="0%"/><stop stop-color="gray" stop-opacity=".12" offset="53.514%"/><stop stop-color="gray" stop-opacity=".1" offset="100%"/></linearGradient><linearGradient x1="49.977%" y1="100.024%" x2="50.023%" y2="-.024%" id="linearGradient-3"><stop stop-color="gray" stop-opacity=".25" offset="0%"/><stop stop-color="gray" stop-opacity=".12" offset="53.514%"/><stop stop-color="gray" stop-opacity=".1" offset="100%"/></linearGradient><linearGradient x1="49.977%" y1="100.024%" x2="50.023%" y2="-.024%" id="linearGradient-4"><stop stop-color="gray" stop-opacity=".25" offset="0%"/><stop stop-color="gray" stop-opacity=".12" offset="53.514%"/><stop stop-color="gray" stop-opacity=".1" offset="100%"/></linearGradient></defs><g id="Demo-WebSite-frontend" stroke="none" stroke-width="1" fill="none" fill-rule="evenodd"><g id="undraw_Browser_stats_av6t" transform="translate(30.440184, 5.000000)" fill-rule="nonzero"><polygon id="Path" fill="url(#linearGradient-1)" points="0.559815951 50.3977231 2.63836562 56.8145739 34.7662188 156 188.559816 105.602277 156.431724 6.41685075 154.353413 0"/><polygon id="Rectangle" fill="#F5F5F5" transform="translate(79.464139, 29.920356) rotate(-18.072574) translate(-79.464139, -29.920356)" points="1.25066085 26.8237789 157.685391 26.632654 157.677617 33.0169338 1.24288683 33.2080587"/><polygon id="Rectangle" fill="#FFF" transform="translate(95.654333, 79.897141) rotate(-18.018730) translate(-95.654333, -79.897141)" points="17.4967186 30.6507614 173.931803 30.4601278 173.811947 129.143521 17.3768633 129.334154"/><ellipse id="Oval" fill="#FF5252" transform="translate(8.560785, 53.057637) rotate(-79.424430) translate(-8.560785, -53.057637)" cx="8.561" cy="53.058" rx="1.825" ry="1.816"/><ellipse id="Oval" fill="#FF0" transform="translate(13.395196, 51.473516) rotate(-79.424430) translate(-13.395196, -51.473516)" cx="13.395" cy="51.474" rx="1.825" ry="1.816"/><ellipse id="Oval" fill="#69F0AE" transform="translate(18.229610, 49.889397) rotate(-79.424430) translate(-18.229610, -49.889397)" cx="18.23" cy="49.889" rx="1.825" ry="1.816"/><polygon id="Rectangle" fill="url(#linearGradient-2)" transform="translate(36.768167, 59.362816) rotate(-18.072730) translate(-36.768167, -59.362816)" points="11.6975548 57.2045436 61.8441092 57.1432763 61.8387784 61.5210884 11.6922239 61.5823557"/><polygon id="Rectangle" fill="#387ED1" transform="translate(36.711952, 59.189285) rotate(-18.072730) translate(-36.711952, -59.189285)" points="11.8225878 57.3956094 61.6057595 57.3347861 61.6013172 60.9829613 11.8181455 61.0437846"/><polygon id="Rectangle" fill="#387ED1" transform="translate(130.982990, 28.298922) rotate(-18.072730) translate(-130.982990, -28.298922)" points="106.093625 26.5052465 155.876797 26.4444232 155.872355 30.0925983 106.089183 30.1534216"/><polygon id="Rectangle" fill="#000" opacity=".2" transform="translate(130.982990, 28.298922) rotate(-18.072730) translate(-130.982990, -28.298922)" points="106.093625 26.5052465 155.876797 26.4444232 155.872355 30.0925983 106.089183 30.1534216"/><polygon id="Rectangle" fill="#387ED1" opacity=".2" transform="translate(21.401575, 89.159817) rotate(-18.072730) translate(-21.401575, -89.159817)" points="20.3127656 88.0666955 22.4930505 88.0640317 22.4903851 90.2529377 20.3101002 90.2556015"/><polygon id="Rectangle" fill="#387ED1" opacity=".5" transform="translate(161.944843, 43.107150) rotate(-18.072730) translate(-161.944843, -43.107150)" points="160.856034 42.0140286 163.036318 42.0113648 163.033653 44.2002708 160.853368 44.2029346"/><ellipse id="Oval" fill="#387ED1" opacity=".2" transform="translate(30.034461, 86.331030) rotate(-79.424430) translate(-30.034461, -86.331030)" cx="30.034" cy="86.331" rx="4.015" ry="3.995"/><ellipse id="Oval" fill="#387ED1" opacity=".5" transform="translate(153.657292, 45.822778) rotate(-79.424430) translate(-153.657292, -45.822778)" cx="153.657" cy="45.823" rx="4.015" ry="3.995"/><polygon id="Rectangle" fill="#387ED1" opacity=".5" transform="translate(47.645527, 80.560302) rotate(-18.072730) translate(-47.645527, -80.560302)" points="36.3820533 79.4796122 58.9116653 79.4520863 58.9089999 81.6409924 36.3793879 81.6685183"/><polygon id="Rectangle" fill="#387ED1" opacity=".8" transform="translate(53.829021, 99.648775) rotate(-18.072730) translate(-53.829021, -99.648775)" points="42.5655475 98.5680851 65.0951594 98.5405592 65.092494 100.729465 42.5628821 100.756991"/><polygon id="Rectangle" fill="#387ED1" opacity=".2" transform="translate(141.884384, 70.795139) rotate(-18.072730) translate(-141.884384, -70.795139)" points="130.620911 69.7144492 153.150522 69.6869233 153.147857 71.8758293 130.618245 71.9033552"/><polygon id="Rectangle" fill="#387ED1" opacity=".7" transform="translate(89.364301, 109.119369) rotate(-18.072730) translate(-89.364301, -109.119369)" points="78.1008275 108.038679 100.630439 108.011153 100.627774 110.200059 78.0981621 110.227585"/><polygon id="Rectangle" fill="#387ED1" opacity=".5" transform="translate(118.716089, 99.501491) rotate(-18.072730) translate(-118.716089, -99.501491)" points="107.452616 98.4208007 129.982228 98.3932748 129.979562 100.582181 107.44995 100.609707"/><polygon id="Rectangle" fill="#387ED1" opacity=".2" transform="translate(76.997315, 70.942421) rotate(-18.072730) translate(-76.997315, -70.942421)" points="65.7338416 69.8617312 88.2634535 69.8342054 88.2607881 72.0231114 65.7311762 72.0506373"/><polygon id="Rectangle" fill="#64FFDA" transform="translate(106.349103, 61.324543) rotate(-18.072730) translate(-106.349103, -61.324543)" points="95.0856298 60.2438526 117.615242 60.2163268 117.612576 62.4052328 95.0829644 62.4327587"/><polygon id="Rectangle" fill="#387ED1" opacity=".2" transform="translate(135.700892, 51.706666) rotate(-18.072730) translate(-135.700892, -51.706666)" points="124.437419 50.6259763 146.967031 50.5984505 146.964365 52.7873565 124.434753 52.8148824"/><polygon id="Rectangle" fill="url(#linearGradient-3)" transform="translate(31.383532, 107.003623) rotate(-18.072730) translate(-31.383532, -107.003623)" points="25.7580157 101.355831 37.0228205 101.342068 37.0090492 112.651414 25.7442444 112.665177"/><polygon id="Rectangle" fill="url(#linearGradient-4)" transform="translate(37.567027, 126.092098) rotate(-18.072730) translate(-37.567027, -126.092098)" points="31.9415099 120.444306 43.2063147 120.430543 43.1925434 131.73989 31.9277386 131.753653"/><polygon id="Rectangle" fill="#387ED1" transform="translate(31.383534, 107.003624) rotate(-18.072730) translate(-31.383534, -107.003624)" points="26.3024215 101.902392 36.477085 101.889961 36.4646465 112.104855 26.2899829 112.117286"/><polygon id="Rectangle" fill="#387ED1" transform="translate(37.567028, 126.092099) rotate(-18.072730) translate(-37.567028, -126.092099)" points="32.4859156 120.990868 42.6605792 120.978437 42.6481406 131.19333 32.4734771 131.205761"/><polygon id="Rectangle" fill="#387ED1" opacity=".1" transform="translate(38.430515, 51.523950) rotate(-18.072730) translate(-38.430515, -51.523950)" points="7.5440339 50.8320517 69.3187736 50.7565776 69.3169966 52.2158491 7.54225696 52.2913232"/><polygon id="Rectangle" fill="#387ED1" opacity=".1" transform="translate(168.232708, 71.950946) rotate(-18.072730) translate(-168.232708, -71.950946)" points="167.347356 52.9815396 169.16426 52.9793197 169.11806 90.9203522 167.301156 90.9225721"/></g></g></svg>